<?xml version="1.0" encoding="UTF-8"?>
<svg version="1.1" xmlns="http://www.w3.org/2000/svg" width="120" height="171">
<path d="M0 0 C3.69876091 1.37287342 6.9514476 3.06355453 10.3125 5.125 C11.63701172 5.93324219 11.63701172 5.93324219 12.98828125 6.7578125 C13.65214844 7.16773438 14.31601563 7.57765625 15 8 C13.47260916 11.42673696 11.45668829 14.05841282 9.0625 16.9375 C7.85787109 18.38962891 7.85787109 18.38962891 6.62890625 19.87109375 C3.46703021 23.64271763 0.28595036 27.39813126 -2.90087891 31.14868164 C-6.65429389 35.57154998 -10.33821941 40.04742334 -13.98046875 44.5625 C-15.79157843 46.74844282 -17.68455867 48.80519592 -19.625 50.875 C-22.25685707 53.65528949 -22.25685707 53.65528949 -21.921875 56.328125 C-20.73027232 59.7817531 -18.91915792 62.03082314 -16.625 64.875 C-15.72224252 66.01035656 -14.82127429 67.14713757 -13.921875 68.28515625 C-13.44814453 68.88215332 -12.97441406 69.47915039 -12.48632812 70.09423828 C-9.87351454 73.44437343 -7.37683275 76.8791425 -4.875 80.3125 C-4.3898291 80.97685059 -3.9046582 81.64120117 -3.40478516 82.32568359 C-2.26849275 83.88279459 -1.13403342 85.44124303 0 87 C4.11543854 83.26506429 7.11391958 78.81793819 10.3125 74.3125 C10.901521 73.50756104 11.49054199 72.70262207 12.09741211 71.87329102 C14.49282417 68.59366422 16.76839155 65.42815691 18.703125 61.8515625 C20.20885974 59.17758529 21.5366756 57.8179455 24 56 C26.33154297 55.4296875 26.33154297 55.4296875 28.8671875 55.25 C29.77460693 55.18369385 30.68202637 55.1173877 31.61694336 55.04907227 C35.74971798 54.88559282 39.86617124 54.87771122 44 55 C42.72757348 57.66148909 41.34399338 60.07233827 39.63671875 62.4765625 C39.16782227 63.13922119 38.69892578 63.80187988 38.21582031 64.48461914 C37.71147461 65.19094482 37.20712891 65.89727051 36.6875 66.625 C36.16639648 67.35904053 35.64529297 68.09308105 35.10839844 68.84936523 C29.12075643 77.26781913 23.06047108 85.63391492 17 94 C38.78 94.495 38.78 94.495 61 95 C61 100.28 61 105.56 61 111 C47.14 111.33 33.28 111.66 19 112 C22.3 116.29 25.6 120.58 29 125 C33.16666667 130.41666667 37.33333333 135.83333333 41.5 141.25 C41.91306396 141.7869751 42.32612793 142.3239502 42.75170898 142.87719727 C43.57937721 143.95318215 44.40701428 145.02919099 45.23461914 146.10522461 C47.40436481 148.92619349 49.57475903 151.74666025 51.74609375 154.56640625 C52.42188477 155.44425781 52.42188477 155.44425781 53.11132812 156.33984375 C54.36442113 157.9675728 55.61775014 159.59512016 56.87109375 161.22265625 C57.57363281 162.13917969 58.27617188 163.05570313 59 164 C59.58910156 164.74121094 60.17820312 165.48242188 60.78515625 166.24609375 C62 168 62 168 62 170 C55.0210417 171.38948047 47.86502518 172.26848539 41 170 C34.81678314 165.36161941 30.89188483 158.37101111 26.85107422 151.90380859 C24.00091543 147.43272066 20.81110259 143.23454507 17.625 139 C16.48796276 137.45301274 15.35250009 135.9048667 14.21875 134.35546875 C9.90726599 128.49696845 5.47065651 122.73768589 1 117 C-3.07646379 120.72847298 -6.14563333 125.11320024 -9.375 129.5625 C-10.62622514 131.27349377 -11.87752952 132.98442959 -13.12890625 134.6953125 C-13.76844238 135.57219727 -14.40797852 136.44908203 -15.06689453 137.35253906 C-16.94434934 139.92378431 -18.82791581 142.49038797 -20.71484375 145.0546875 C-21.31216309 145.86760254 -21.90948242 146.68051758 -22.52490234 147.51806641 C-23.71196504 149.12470275 -24.90626854 150.72601558 -26.10791016 152.32177734 C-28.68010716 155.75017015 -31.14000465 159.12260753 -33.24609375 162.859375 C-35.30555054 166.27975937 -36.7857893 168.62064922 -40 171 C-45.9436085 172.35211987 -52.00660939 171.6982591 -58 171 C-57.38774318 167.81272805 -56.33202871 165.76583192 -54.41015625 163.1640625 C-53.87841797 162.43703125 -53.34667969 161.71 -52.79882812 160.9609375 C-52.22583984 160.19007813 -51.65285156 159.41921875 -51.0625 158.625 C-49.86554746 156.99243523 -48.66893594 155.35962037 -47.47265625 153.7265625 C-46.87984863 152.9212207 -46.28704102 152.11587891 -45.67626953 151.28613281 C-43.42166595 148.21125546 -41.20747242 145.10879175 -39 142 C-36.2259839 138.10359291 -33.4377088 134.21800317 -30.6328125 130.34375 C-30.05144531 129.54066406 -29.47007813 128.73757812 -28.87109375 127.91015625 C-27.73668714 126.34431983 -26.60132419 124.77917564 -25.46484375 123.21484375 C-24.94277344 122.49425781 -24.42070313 121.77367188 -23.8828125 121.03125 C-23.42277832 120.39767578 -22.96274414 119.76410156 -22.48876953 119.11132812 C-20.60744534 116.4432908 -18.81089046 113.7163357 -17 111 C-28.88 111 -40.76 111 -53 111 C-53 105.72 -53 100.44 -53 95 C-40.79 94.67 -28.58 94.34 -16 94 C-18.041875 91.40125 -20.08375 88.8025 -22.1875 86.125 C-45.1167876 56.77736123 -45.1167876 56.77736123 -44.875 53.09765625 C-43.71675873 50.32097963 -42.07032125 48.61924479 -40 46.4375 C-36.73878098 42.92423093 -33.62354927 39.36506777 -30.625 35.625 C-27.38048594 31.61175091 -24.01266903 27.7757082 -20.5 24 C-16.14138115 19.31363122 -12.03291148 14.47766893 -8.015625 9.4921875 C-5.40900097 6.26926864 -2.71456573 3.13219123 0 0 Z " fill="#ED1C24" transform="translate(58,0)"/>
<path d="M0 0 C3.60067126 0.87838956 4.94522296 2.42198203 6.9375 5.47265625 C7.56617003 8.59931607 7.58574105 11.34825121 6.9375 14.47265625 C5.06129387 16.97426443 3.69858697 18.09211277 0.9375 19.47265625 C-3.68255487 19.88332779 -6.4170071 19.40930331 -10.0625 16.47265625 C-11.77707905 13.58904602 -12.06990093 11.82790087 -12 8.47265625 C-10.0604492 2.2660937 -6.37264514 -0.47070674 0 0 Z " fill="#ED1C24" transform="translate(62.0625,42.52734375)"/>
</svg>
